{
	"asset":{
		"generator":"Khronos glTF Blender I/O v4.3.47",
		"version":"2.0"
	},
	"extensionsUsed":[
		"KHR_materials_specular",
		"KHR_materials_ior"
	],
	"scene":0,
	"scenes":[
		{
			"name":"Scene",
			"nodes":[
				0,
				28
			]
		}
	],
	"nodes":[
		{
			"name":"Armature"
		},
		{
			"name":"Thumb_Tip_L",
			"rotation":[
				-3.026798722771673e-08,
				-4.540197551250458e-09,
				-4.377216455964117e-08,
				1
			],
			"scale":[
				0.9999999403953552,
				0.9999999403953552,
				0.9999999403953552
			],
			"translation":[
				-1.7462298274040222e-09,
				1.1408701539039612e-08,
				-0.030464010313153267
			]
		},
		{
			"children":[
				1
			],
			"name":"Thumb_Distal_L",
			"rotation":[
				-0.1533350944519043,
				-0.0014028149889782071,
				-9.754318307386711e-05,
				0.9881733059883118
			],
			"scale":[
				0.9999999403953552,
				0.9999999403953552,
				1
			],
			"translation":[
				-5.3551048040390015e-09,
				9.778887033462524e-09,
				-0.03251681476831436
			]
		},
		{
			"children":[
				2
			],
			"name":"Thumb_Proximal_L",
			"rotation":[
				-0.24637751281261444,
				0.001371840015053749,
				-6.098282756283879e-05,
				0.9691729545593262
			],
			"scale":[
				0.9999999403953552,
				0.9999998807907104,
				0.9999998807907104
			],
			"translation":[
				-1.0477378964424133e-09,
				-9.778887033462524e-09,
				-0.04040612280368805
			]
		},
		{
			"children":[
				3
			],
			"name":"Thumb_Metacarpal_L",
			"rotation":[
				0.11328728497028351,
				-0.3451286852359772,
				-0.6099363565444946,
				0.7042939066886902
			],
			"scale":[
				1.0000001192092896,
				1,
				0.9999999403953552
			],
			"translation":[
				0.029178034514188766,
				-0.017913810908794403,
				-0.02529832161962986
			]
		},
		{
			"name":"Index_Tip_L",
			"rotation":[
				-1.1711382086332378e-07,
				2.5890767574310303e-07,
				-1.862645371275562e-09,
				1
			],
			"scale":[
				0.9999999403953552,
				0.9999999403953552,
				1
			],
			"translation":[
				-9.778887033462524e-09,
				5.587935447692871e-09,
				-0.02282155677676201
			]
		},
		{
			"children":[
				5
			],
			"name":"Index_Distal_L",
			"rotation":[
				-0.07645769417285919,
				0.0011658866424113512,
				-3.131801349809393e-05,
				0.997072160243988
			],
			"scale":[
				1,
				1.0000001192092896,
				1
			],
			"translation":[
				-1.3969838619232178e-09,
				9.313225746154785e-09,
				-0.028275195509195328
			]
		},
		{
			"children":[
				6
			],
			"name":"Index_Intermediate_L",
			"rotation":[
				-0.18476209044456482,
				-0.005041549913585186,
				8.592919039074332e-05,
				0.9827703833580017
			],
			"scale":[
				1,
				1.0000001192092896,
				1
			],
			"translation":[
				-6.402842700481415e-09,
				1.4784745872020721e-08,
				-0.043286584317684174
			]
		},
		{
			"children":[
				7
			],
			"name":"Index_Proximal_L",
			"rotation":[
				-0.24140392243862152,
				0.052886974066495895,
				-0.0016234124777838588,
				0.968981146812439
			],
			"translation":[
				3.4924596548080444e-09,
				2.444721758365631e-08,
				-0.07379752397537231
			]
		},
		{
			"children":[
				8
			],
			"name":"Index_Metacarpal_L",
			"rotation":[
				0.09539873152971268,
				-0.1039200872182846,
				-0.08422340452671051,
				0.9864107370376587
			],
			"translation":[
				0.021073225885629654,
				-0.0015572495758533478,
				-0.014786973595619202
			]
		},
		{
			"name":"Middle_Tip_L",
			"rotation":[
				-2.4260953068733215e-07,
				1.1012889444828033e-07,
				-4.423782229423523e-09,
				1
			],
			"translation":[
				-5.820766091346741e-09,
				-7.130438461899757e-09,
				-0.025892285630106926
			]
		},
		{
			"children":[
				10
			],
			"name":"Middle_Distal_L",
			"rotation":[
				-0.14127647876739502,
				-0.004125439096242189,
				0.00010742108133854344,
				0.9899616241455078
			],
			"scale":[
				0.9999999403953552,
				1,
				0.9999999403953552
			],
			"translation":[
				-1.1641532182693481e-10,
				-1.635635271668434e-08,
				-0.033265914767980576
			]
		},
		{
			"children":[
				11
			],
			"name":"Middle_Intermediate_L",
			"rotation":[
				-0.15739552676677704,
				0.0036881626583635807,
				-9.328162559540942e-05,
				0.9875287413597107
			],
			"translation":[
				1.1641532182693481e-10,
				-3.725290298461914e-09,
				-0.04310853034257889
			]
		},
		{
			"children":[
				12
			],
			"name":"Middle_Proximal_L",
			"rotation":[
				-0.2291625589132309,
				0.00018553413974586874,
				-7.772004373407526e-09,
				0.973388135433197
			],
			"scale":[
				1,
				0.9999998807907104,
				1
			],
			"translation":[
				-1.1641532182693481e-10,
				1.3271346688270569e-08,
				-0.0708855390548706
			]
		},
		{
			"children":[
				13
			],
			"name":"Middle_Metacarpal_L",
			"rotation":[
				0.10122402012348175,
				-0.012461896985769272,
				-0.040788352489471436,
				0.9939490556716919
			],
			"translation":[
				0.007119541522115469,
				0.0021773017942905426,
				-0.01631883531808853
			]
		},
		{
			"name":"Ring_Tip_L",
			"rotation":[
				5.029141902923584e-08,
				9.313225746154785e-10,
				3.026798367500305e-08,
				1
			],
			"scale":[
				1,
				0.9999998807907104,
				1
			],
			"translation":[
				2.7939677238464355e-09,
				1.955777406692505e-08,
				-0.022430162876844406
			]
		},
		{
			"children":[
				15
			],
			"name":"Ring_Distal_L",
			"rotation":[
				-0.13535483181476593,
				0.004263098351657391,
				-0.0001986388087971136,
				0.9907879829406738
			],
			"translation":[
				-5.0640664994716644e-09,
				-1.0244548320770264e-08,
				-0.028488755226135254
			]
		},
		{
			"children":[
				16
			],
			"name":"Ring_Intermediate_L",
			"rotation":[
				-0.1338299661874771,
				-0.0025314337108284235,
				7.310594082809985e-05,
				0.9910010695457458
			],
			"scale":[
				1,
				1.0000001192092896,
				1
			],
			"translation":[
				-6.060872692614794e-09,
				3.3760443329811096e-09,
				-0.04033122956752777
			]
		},
		{
			"children":[
				17
			],
			"name":"Ring_Proximal_L",
			"rotation":[
				-0.22036926448345184,
				0.04095693677663803,
				0.0009013243252411485,
				0.9745558500289917
			],
			"scale":[
				1,
				1,
				0.9999999403953552
			],
			"translation":[
				9.022187441587448e-10,
				6.7229848355054855e-09,
				-0.06597498804330826
			]
		},
		{
			"children":[
				18
			],
			"name":"Ring_Metacarpal_L",
			"rotation":[
				0.07069993019104004,
				0.049555663019418716,
				0.016104333102703094,
				0.9961357712745667
			],
			"translation":[
				-0.0065451269038021564,
				0.000513419508934021,
				-0.01634765975177288
			]
		},
		{
			"name":"Little_Tip_L",
			"rotation":[
				1.9045546650886536e-07,
				8.009374852235851e-08,
				1.601874828338623e-07,
				1
			],
			"scale":[
				0.9999999403953552,
				1,
				0.9999998807907104
			],
			"translation":[
				-4.190951585769653e-09,
				-2.7939677238464355e-09,
				-0.018017921596765518
			]
		},
		{
			"children":[
				20
			],
			"name":"Little_Distal_L",
			"rotation":[
				-0.10858118534088135,
				-0.012702555395662785,
				0.0005384135292842984,
				0.9940062761306763
			],
			"scale":[
				0.9999999403953552,
				0.9999998807907104,
				0.9999998807907104
			],
			"translation":[
				3.026798367500305e-09,
				1.1175870895385742e-08,
				-0.017978539690375328
			]
		},
		{
			"children":[
				21
			],
			"name":"Little_Intermediate_L",
			"rotation":[
				-0.13252303004264832,
				0.011456103064119816,
				-0.00038280189619399607,
				0.9911136627197266
			],
			"scale":[
				1.0000001192092896,
				1,
				1.0000001192092896
			],
			"translation":[
				-3.14321368932724e-09,
				1.3504177331924438e-08,
				-0.02987433224916458
			]
		},
		{
			"children":[
				22
			],
			"name":"Little_Proximal_L",
			"rotation":[
				-0.11030778288841248,
				-0.028164101764559746,
				-0.003942129667848349,
				0.9934905767440796
			],
			"scale":[
				1.0000001192092896,
				1,
				0.9999999403953552
			],
			"translation":[
				-5.3551048040390015e-09,
				-3.4924596548080444e-10,
				-0.06285565346479416
			]
		},
		{
			"children":[
				23
			],
			"name":"Little_Metacarpal_L",
			"rotation":[
				0.019660942256450653,
				0.14891953766345978,
				0.11935025453567505,
				0.9814234375953674
			],
			"scale":[
				1,
				0.9999999403953552,
				0.9999999403953552
			],
			"translation":[
				-0.01898137666285038,
				-0.0024781599640846252,
				-0.015213638544082642
			]
		},
		{
			"name":"Palm_L",
			"rotation":[
				0.10122404992580414,
				-0.012461875565350056,
				-0.04078836739063263,
				0.9939490556716919
			],
			"translation":[
				0.008290234953165054,
				0.009273176081478596,
				-0.05102428048849106
			]
		},
		{
			"children":[
				4,
				9,
				14,
				19,
				24,
				25
			],
			"name":"Wrist_L",
			"rotation":[
				8.430358633404467e-08,
				-8.430359343947202e-08,
				0.7071067690849304,
				0.7071067690849304
			],
			"scale":[
				1,
				0.9999999403953552,
				1
			],
			"translation":[
				-0.0001597874506842345,
				-3.192447911715135e-05,
				0.0006257090717554092
			]
		},
		{
			"extras":{
				"currentUVSet":"map1"
			},
			"mesh":0,
			"name":"vr_glove_left_slim",
			"skin":0
		},
		{
			"children":[
				27,
				26
			],
			"name":"Armature.001"
		}
	],
	"materials":[
		{
			"doubleSided":true,
			"extensions":{
				"KHR_materials_specular":{
					"specularColorFactor":[
						2.0,
						2.0,
						2.0
					]
				},
				"KHR_materials_ior":{
					"ior":1.4500000476837158
				}
			},
			"name":"glove",
			"normalTexture":{
				"index":0
			},
			"pbrMetallicRoughness":{
				"baseColorTexture":{
					"index":1
				},
				"metallicFactor":0.5,
				"roughnessFactor":0.7487671971321106
			}
		}
	],
	"meshes":[
		{
			"name":"Mesh.001",
			"primitives":[
				{
					"attributes":{
						"POSITION":0,
						"NORMAL":1,
						"TEXCOORD_0":2,
						"TANGENT":3,
						"JOINTS_0":4,
						"JOINTS_1":5,
						"WEIGHTS_0":6,
						"WEIGHTS_1":7
					},
					"indices":8,
					"material":0
				}
			]
		}
	],
	"textures":[
		{
			"sampler":0,
			"source":0
		},
		{
			"sampler":0,
			"source":1
		}
	],
	"images":[
		{
			"mimeType":"image/png",
			"name":"file2",
			"uri":"../../addons/xr-kit/physics-movement/assets/valve_hand_models/textures/vr_glove_normal.png"
		},
		{
			"mimeType":"image/jpeg",
			"name":"file3",
			"uri":"../../addons/xr-kit/physics-movement/assets/valve_hand_models/textures/vr_glove_color_red.jpg"
		}
	],
	"skins":[
		{
			"inverseBindMatrices":9,
			"joints":[
				26,
				4,
				3,
				2,
				1,
				9,
				8,
				7,
				6,
				5,
				14,
				13,
				12,
				11,
				10,
				19,
				18,
				17,
				16,
				15,
				24,
				23,
				22,
				21,
				20,
				25
			],
			"name":"Armature.001"
		}
	],
	"accessors":[
		{
			"bufferView":0,
			"componentType":5126,
			"count":3029,
			"max":[
				0.055309295654296875,
				0.06686021387577057,
				0.02769351936876774
			],
			"min":[
				-0.02258801832795143,
				-0.053069572895765305,
				-0.175933837890625
			],
			"type":"VEC3"
		},
		{
			"bufferView":1,
			"componentType":5126,
			"count":3029,
			"type":"VEC3"
		},
		{
			"bufferView":2,
			"componentType":5126,
			"count":3029,
			"type":"VEC2"
		},
		{
			"bufferView":3,
			"componentType":5126,
			"count":3029,
			"type":"VEC4"
		},
		{
			"bufferView":4,
			"componentType":5121,
			"count":3029,
			"type":"VEC4"
		},
		{
			"bufferView":5,
			"componentType":5121,
			"count":3029,
			"type":"VEC4"
		},
		{
			"bufferView":6,
			"componentType":5126,
			"count":3029,
			"type":"VEC4"
		},
		{
			"bufferView":7,
			"componentType":5126,
			"count":3029,
			"type":"VEC4"
		},
		{
			"bufferView":8,
			"componentType":5123,
			"count":14697,
			"type":"SCALAR"
		},
		{
			"bufferView":9,
			"componentType":5126,
			"count":26,
			"type":"MAT4"
		}
	],
	"bufferViews":[
		{
			"buffer":0,
			"byteLength":36348,
			"byteOffset":0,
			"target":34962
		},
		{
			"buffer":0,
			"byteLength":36348,
			"byteOffset":36348,
			"target":34962
		},
		{
			"buffer":0,
			"byteLength":24232,
			"byteOffset":72696,
			"target":34962
		},
		{
			"buffer":0,
			"byteLength":48464,
			"byteOffset":96928,
			"target":34962
		},
		{
			"buffer":0,
			"byteLength":12116,
			"byteOffset":145392,
			"target":34962
		},
		{
			"buffer":0,
			"byteLength":12116,
			"byteOffset":157508,
			"target":34962
		},
		{
			"buffer":0,
			"byteLength":48464,
			"byteOffset":169624,
			"target":34962
		},
		{
			"buffer":0,
			"byteLength":48464,
			"byteOffset":218088,
			"target":34962
		},
		{
			"buffer":0,
			"byteLength":29394,
			"byteOffset":266552,
			"target":34963
		},
		{
			"buffer":0,
			"byteLength":1664,
			"byteOffset":295948
		}
	],
	"samplers":[
		{
			"magFilter":9729,
			"minFilter":9987
		}
	],
	"buffers":[
		{
			"byteLength":297612,
			"uri":"left_hand-bd46a08e7166d57511cf7a08e2ee2a25.bin"
		}
	]
}
