{
	"asset":{
		"generator":"Khronos glTF Blender I/O v4.3.47",
		"version":"2.0"
	},
	"extensionsUsed":[
		"KHR_materials_specular",
		"KHR_materials_ior"
	],
	"scene":0,
	"scenes":[
		{
			"name":"Scene",
			"nodes":[
				27
			]
		}
	],
	"nodes":[
		{
			"name":"Thumb_Tip_R",
			"rotation":[
				-3.4924592107188346e-09,
				-5.122273272206712e-09,
				-1.6298143279414035e-08,
				1
			],
			"scale":[
				1.0000001192092896,
				1.0000001192092896,
				1.0000001192092896
			],
			"translation":[
				-7.066410034894943e-08,
				1.7182901501655579e-07,
				-0.030463915318250656
			]
		},
		{
			"children":[
				0
			],
			"name":"Thumb_Distal_R",
			"rotation":[
				-0.15333500504493713,
				0.0014029209269210696,
				9.762471017893404e-05,
				0.9881733059883118
			],
			"scale":[
				1,
				0.9999999403953552,
				0.9999998807907104
			],
			"translation":[
				1.280568540096283e-08,
				-5.2852556109428406e-08,
				-0.03251679241657257
			]
		},
		{
			"children":[
				1
			],
			"name":"Thumb_Proximal_R",
			"rotation":[
				-0.24637748301029205,
				-0.0013718989212065935,
				6.094387936173007e-05,
				0.9691729545593262
			],
			"scale":[
				1,
				0.9999999403953552,
				0.9999998211860657
			],
			"translation":[
				-4.4528860598802567e-08,
				-4.330649971961975e-08,
				-0.040405962616205215
			]
		},
		{
			"children":[
				2
			],
			"name":"Thumb_Metacarpal_R",
			"rotation":[
				0.11328733712434769,
				0.34512871503829956,
				0.6099363565444946,
				0.7042938470840454
			],
			"scale":[
				0.9999999403953552,
				0.9999998807907104,
				0.9999999403953552
			],
			"translation":[
				-0.02917817234992981,
				-0.01791379228234291,
				-0.02529839612543583
			]
		},
		{
			"name":"Index_Tip_R",
			"rotation":[
				1.4761462807655334e-07,
				3.91155481338501e-08,
				3.166496753692627e-08,
				1
			],
			"scale":[
				1,
				1,
				1.0000001192092896
			],
			"translation":[
				-7.59027898311615e-08,
				-1.3597309589385986e-07,
				-0.02282140776515007
			]
		},
		{
			"children":[
				4
			],
			"name":"Index_Distal_R",
			"rotation":[
				-0.07645785808563232,
				-0.0011659258743748069,
				3.130306504317559e-05,
				0.997072160243988
			],
			"translation":[
				1.3015232980251312e-07,
				-3.958120942115784e-08,
				-0.02827518619596958
			]
		},
		{
			"children":[
				5
			],
			"name":"Index_Intermediate_R",
			"rotation":[
				-0.1847619116306305,
				0.005041471682488918,
				-8.597046689828858e-05,
				0.9827703833580017
			],
			"scale":[
				0.9999999403953552,
				1.0000001192092896,
				0.9999998807907104
			],
			"translation":[
				-1.501321094110608e-07,
				4.062894731760025e-08,
				-0.04328668862581253
			]
		},
		{
			"children":[
				6
			],
			"name":"Index_Proximal_R",
			"rotation":[
				-0.24140383303165436,
				-0.05288694426417351,
				0.0016235357616096735,
				0.9689812064170837
			],
			"scale":[
				1,
				0.9999998807907104,
				0.9999999403953552
			],
			"translation":[
				8.824281394481659e-08,
				-3.14321368932724e-08,
				-0.07379759848117828
			]
		},
		{
			"children":[
				7
			],
			"name":"Index_Metacarpal_R",
			"rotation":[
				0.09539881348609924,
				0.10392016172409058,
				0.08422337472438812,
				0.9864107370376587
			],
			"scale":[
				1,
				0.9999998211860657,
				1
			],
			"translation":[
				-0.02107323706150055,
				-0.0015572271076962352,
				-0.014786861836910248
			]
		},
		{
			"name":"Middle_Tip_R",
			"rotation":[
				-2.171727970790016e-07,
				-6.984919309616089e-10,
				-4.656613428188905e-10,
				1
			],
			"scale":[
				0.9999999403953552,
				0.9999999403953552,
				1
			],
			"translation":[
				3.725290298461914e-09,
				8.3498889580369e-08,
				-0.02589237689971924
			]
		},
		{
			"children":[
				9
			],
			"name":"Middle_Distal_R",
			"rotation":[
				-0.14127670228481293,
				0.004125451669096947,
				-0.00010741743608377874,
				0.989961564540863
			],
			"scale":[
				0.9999999403953552,
				1,
				1
			],
			"translation":[
				1.234002411365509e-08,
				1.507578417658806e-08,
				-0.03326598182320595
			]
		},
		{
			"children":[
				10
			],
			"name":"Middle_Intermediate_R",
			"rotation":[
				-0.15739542245864868,
				-0.003688235767185688,
				9.328802116215229e-05,
				0.9875287413597107
			],
			"scale":[
				0.9999999403953552,
				1,
				1
			],
			"translation":[
				-2.2206222638487816e-08,
				-1.0419171303510666e-07,
				-0.04310851916670799
			]
		},
		{
			"children":[
				11
			],
			"name":"Middle_Proximal_R",
			"rotation":[
				-0.22916269302368164,
				-0.000185517652425915,
				7.536546497988184e-09,
				0.973388135433197
			],
			"scale":[
				0.9999999403953552,
				1,
				0.9999999403953552
			],
			"translation":[
				5.587935447692871e-09,
				1.0317307896912098e-07,
				-0.07088558375835419
			]
		},
		{
			"children":[
				12
			],
			"name":"Middle_Metacarpal_R",
			"rotation":[
				0.10122408717870712,
				0.01246198732405901,
				0.04078838229179382,
				0.9939490556716919
			],
			"translation":[
				-0.0071195452474057674,
				0.002177312970161438,
				-0.016318736597895622
			]
		},
		{
			"name":"Ring_Tip_R",
			"rotation":[
				2.8801150619983673e-07,
				4.656612873077393e-10,
				-4.703179712350902e-08,
				1
			],
			"scale":[
				0.9999999403953552,
				0.9999999403953552,
				1
			],
			"translation":[
				1.816079020500183e-08,
				1.555308699607849e-07,
				-0.022430282086133957
			]
		},
		{
			"children":[
				14
			],
			"name":"Ring_Distal_R",
			"rotation":[
				-0.13535518944263458,
				-0.004263029899448156,
				0.00019871353288181126,
				0.9907879829406738
			],
			"translation":[
				-6.949994713068008e-08,
				2.3050233721733093e-08,
				-0.02848876640200615
			]
		},
		{
			"children":[
				15
			],
			"name":"Ring_Intermediate_R",
			"rotation":[
				-0.13382987678050995,
				0.002531357342377305,
				-7.313551031984389e-05,
				0.9910010695457458
			],
			"scale":[
				1.0000001192092896,
				1.0000001192092896,
				1
			],
			"translation":[
				7.748894859105349e-09,
				-8.614733815193176e-09,
				-0.04033121466636658
			]
		},
		{
			"children":[
				16
			],
			"name":"Ring_Proximal_R",
			"rotation":[
				-0.22036930918693542,
				-0.04095688834786415,
				-0.0009013420203700662,
				0.9745558500289917
			],
			"translation":[
				-1.1641532182693481e-09,
				-1.641456037759781e-08,
				-0.0659748837351799
			]
		},
		{
			"children":[
				17
			],
			"name":"Ring_Metacarpal_R",
			"rotation":[
				0.07069998979568481,
				-0.04955555126070976,
				-0.016104307025671005,
				0.9961357712745667
			],
			"scale":[
				1,
				0.9999999403953552,
				1
			],
			"translation":[
				0.006545121315866709,
				0.0005134362727403641,
				-0.016347693279385567
			]
		},
		{
			"name":"Little_Tip_R",
			"rotation":[
				5.052424967288971e-08,
				-3.725290298461914e-09,
				5.587935447692871e-08,
				1
			],
			"translation":[
				-6.239861249923706e-08,
				-2.9802322387695312e-08,
				-0.0180179625749588
			]
		},
		{
			"children":[
				19
			],
			"name":"Little_Distal_R",
			"rotation":[
				-0.10858102887868881,
				0.012702426873147488,
				-0.0005384603282436728,
				0.9940062761306763
			],
			"translation":[
				9.150244295597076e-08,
				9.313225746154785e-08,
				-0.01797870174050331
			]
		},
		{
			"children":[
				20
			],
			"name":"Little_Intermediate_R",
			"rotation":[
				-0.132522851228714,
				-0.011455973610281944,
				0.0003825351595878601,
				0.9911137223243713
			],
			"translation":[
				-9.324867278337479e-08,
				-4.0046870708465576e-08,
				-0.02987426519393921
			]
		},
		{
			"children":[
				21
			],
			"name":"Little_Proximal_R",
			"rotation":[
				-0.1103077083826065,
				0.028164098039269447,
				0.003942299634218216,
				0.9934905767440796
			],
			"scale":[
				0.9999998807907104,
				0.9999998211860657,
				0.9999999403953552
			],
			"translation":[
				3.463355824351311e-08,
				6.28642737865448e-09,
				-0.06285566836595535
			]
		},
		{
			"children":[
				22
			],
			"name":"Little_Metacarpal_R",
			"rotation":[
				0.01966097578406334,
				-0.14891944825649261,
				-0.11935026943683624,
				0.9814234375953674
			],
			"scale":[
				1,
				0.9999998807907104,
				1
			],
			"translation":[
				0.018981367349624634,
				-0.002478145295754075,
				-0.015213585458695889
			]
		},
		{
			"name":"Palm_R",
			"rotation":[
				0.10122409462928772,
				0.012462005019187927,
				0.040788374841213226,
				0.9939490556716919
			],
			"translation":[
				-0.008290247991681099,
				0.009273245930671692,
				-0.05102420225739479
			]
		},
		{
			"children":[
				3,
				8,
				13,
				18,
				23,
				24
			],
			"name":"Wrist_R",
			"rotation":[
				-0.5,
				-0.5000000596046448,
				-0.4999999403953552,
				0.4999999403953552
			],
			"translation":[
				0.00015978733426891267,
				0.0006257086643017828,
				3.1924497307045385e-05
			]
		},
		{
			"extras":{
				"currentUVSet":"map1"
			},
			"mesh":0,
			"name":"vr_glove_right_slim",
			"skin":0
		},
		{
			"children":[
				26,
				25
			],
			"name":"Armature"
		}
	],
	"materials":[
		{
			"doubleSided":true,
			"extensions":{
				"KHR_materials_specular":{
					"specularColorFactor":[
						2.0,
						2.0,
						2.0
					]
				},
				"KHR_materials_ior":{
					"ior":1.4500000476837158
				}
			},
			"name":"blinn1",
			"normalTexture":{
				"index":0
			},
			"pbrMetallicRoughness":{
				"baseColorTexture":{
					"index":1
				},
				"metallicFactor":0.5,
				"roughnessFactor":0.7487671971321106
			}
		}
	],
	"meshes":[
		{
			"name":"Mesh",
			"primitives":[
				{
					"attributes":{
						"POSITION":0,
						"NORMAL":1,
						"TEXCOORD_0":2,
						"TANGENT":3,
						"JOINTS_0":4,
						"JOINTS_1":5,
						"WEIGHTS_0":6,
						"WEIGHTS_1":7
					},
					"indices":8,
					"material":0
				}
			]
		}
	],
	"textures":[
		{
			"sampler":0,
			"source":0
		},
		{
			"sampler":0,
			"source":1
		}
	],
	"images":[
		{
			"mimeType":"image/png",
			"name":"file2",
			"uri":"../../addons/xr-kit/physics-movement/assets/valve_hand_models/textures/vr_glove_normal.png"
		},
		{
			"mimeType":"image/jpeg",
			"name":"file3",
			"uri":"../../addons/xr-kit/physics-movement/assets/valve_hand_models/textures/vr_glove_color_red.jpg"
		}
	],
	"skins":[
		{
			"inverseBindMatrices":9,
			"joints":[
				25,
				3,
				2,
				1,
				0,
				8,
				7,
				6,
				5,
				4,
				13,
				12,
				11,
				10,
				9,
				18,
				17,
				16,
				15,
				14,
				23,
				22,
				21,
				20,
				19,
				24
			],
			"name":"Armature"
		}
	],
	"accessors":[
		{
			"bufferView":0,
			"componentType":5126,
			"count":3029,
			"max":[
				0.022588014602661133,
				0.02769351564347744,
				0.0530695915222168
			],
			"min":[
				-0.05530929192900658,
				-0.175933837890625,
				-0.06686019152402878
			],
			"type":"VEC3"
		},
		{
			"bufferView":1,
			"componentType":5126,
			"count":3029,
			"type":"VEC3"
		},
		{
			"bufferView":2,
			"componentType":5126,
			"count":3029,
			"type":"VEC2"
		},
		{
			"bufferView":3,
			"componentType":5126,
			"count":3029,
			"type":"VEC4"
		},
		{
			"bufferView":4,
			"componentType":5121,
			"count":3029,
			"type":"VEC4"
		},
		{
			"bufferView":5,
			"componentType":5121,
			"count":3029,
			"type":"VEC4"
		},
		{
			"bufferView":6,
			"componentType":5126,
			"count":3029,
			"type":"VEC4"
		},
		{
			"bufferView":7,
			"componentType":5126,
			"count":3029,
			"type":"VEC4"
		},
		{
			"bufferView":8,
			"componentType":5123,
			"count":14697,
			"type":"SCALAR"
		},
		{
			"bufferView":9,
			"componentType":5126,
			"count":26,
			"type":"MAT4"
		}
	],
	"bufferViews":[
		{
			"buffer":0,
			"byteLength":36348,
			"byteOffset":0,
			"target":34962
		},
		{
			"buffer":0,
			"byteLength":36348,
			"byteOffset":36348,
			"target":34962
		},
		{
			"buffer":0,
			"byteLength":24232,
			"byteOffset":72696,
			"target":34962
		},
		{
			"buffer":0,
			"byteLength":48464,
			"byteOffset":96928,
			"target":34962
		},
		{
			"buffer":0,
			"byteLength":12116,
			"byteOffset":145392,
			"target":34962
		},
		{
			"buffer":0,
			"byteLength":12116,
			"byteOffset":157508,
			"target":34962
		},
		{
			"buffer":0,
			"byteLength":48464,
			"byteOffset":169624,
			"target":34962
		},
		{
			"buffer":0,
			"byteLength":48464,
			"byteOffset":218088,
			"target":34962
		},
		{
			"buffer":0,
			"byteLength":29394,
			"byteOffset":266552,
			"target":34963
		},
		{
			"buffer":0,
			"byteLength":1664,
			"byteOffset":295948
		}
	],
	"samplers":[
		{
			"magFilter":9729,
			"minFilter":9987
		}
	],
	"buffers":[
		{
			"byteLength":297612,
			"uri":"right_hand-2c1d879b835bce070179140a41f32314.bin"
		}
	]
}
